<?xml version="1.0" standalone="no"?>
<!DOCTYPE svg PUBLIC "-//W3C//DTD SVG 20010904//EN"
 "http://www.w3.org/TR/2001/REC-SVG-20010904/DTD/svg10.dtd">
<svg version="1.0" xmlns="http://www.w3.org/2000/svg"
 width="300.000000pt" height="300.000000pt" viewBox="0 0 300.000000 300.000000"
 preserveAspectRatio="xMidYMid meet">
<metadata>
Created by potrace 1.10, written by Peter Selinger 2001-2011
</metadata>
<g transform="translate(0.000000,300.000000) scale(0.100000,-0.100000)"
fill="#000000" stroke="none">
<path d="M1340 2737 c-3 -3 -26 -7 -50 -8 -25 -1 -63 -6 -85 -12 -22 -5 -47
-11 -55 -12 -71 -9 -242 -78 -335 -134 -142 -85 -285 -219 -370 -346 -52 -78
-116 -209 -132 -270 -46 -171 -47 -177 -48 -315 0 -102 10 -206 24 -243 6 -15
9 -27 6 -27 -14 0 103 -272 126 -290 3 -3 12 -16 19 -30 36 -68 128 -170 225
-249 67 -54 149 -111 160 -111 3 0 23 -11 45 -25 22 -14 40 -23 40 -20 0 3 11
-2 24 -10 28 -19 154 -60 251 -82 104 -23 374 -25 479 -2 233 50 425 147 583
293 69 64 173 185 173 202 0 4 6 15 14 23 28 33 78 135 111 226 19 52 32 95
30 95 -2 0 3 25 10 56 21 89 13 329 -14 434 -30 119 -91 263 -135 319 -5 7
-15 21 -21 31 -74 127 -244 277 -417 368 -70 38 -278 117 -278 107 0 -3 -11 0
-26 5 -44 17 -343 39 -354 27z m280 -48 c186 -33 312 -83 468 -183 66 -42 211
-176 266 -246 56 -71 168 -280 150 -280 -4 0 -2 -6 4 -13 22 -26 62 -239 62
-330 0 -82 -27 -241 -56 -322 -13 -38 -26 -75 -27 -81 -2 -6 -27 -55 -57 -109
-42 -74 -79 -121 -155 -200 -55 -56 -127 -121 -159 -145 -54 -39 -246 -143
-246 -134 0 3 -13 -2 -30 -11 -16 -9 -30 -13 -30 -10 0 3 -14 -2 -31 -10 -17
-9 -33 -14 -36 -11 -3 2 -17 0 -32 -6 -38 -14 -206 -37 -279 -38 -71 0 -229
22 -315 45 -65 17 -214 77 -255 102 -219 135 -337 256 -454 463 -34 59 -75
184 -95 284 -15 76 -21 305 -9 324 3 5 8 27 10 48 7 49 52 193 67 211 6 7 9
13 5 13 -3 0 5 18 19 40 14 22 25 43 25 47 0 15 98 151 149 206 116 125 352
269 511 312 173 48 383 61 530 34z"/>
<path d="M1655 2500 c-3 -5 1 -35 9 -66 8 -32 13 -61 11 -64 -3 -4 0 -22 5
-41 5 -18 17 -76 25 -129 15 -94 22 -133 47 -260 7 -36 11 -69 10 -73 -1 -5 2
-27 8 -49 6 -22 13 -59 16 -82 3 -22 10 -56 15 -74 6 -18 9 -36 6 -38 -3 -3
-1 -20 4 -37 5 -18 14 -61 20 -97 17 -112 27 -172 44 -265 9 -49 19 -103 21
-120 2 -16 6 -39 8 -50 3 -11 5 -26 5 -32 1 -15 37 -18 45 -4 4 5 25 12 49 16
23 3 56 11 72 16 17 5 50 11 74 14 51 6 84 22 76 36 -7 11 -80 4 -121 -11 -15
-6 -29 -9 -31 -6 -2 2 -25 -3 -50 -10 -54 -16 -97 -18 -88 -4 3 5 1 28 -5 50
-6 23 -13 58 -16 78 -2 20 -7 51 -11 67 -3 17 -7 39 -9 50 -2 20 -20 117 -50
283 -9 48 -16 94 -16 102 0 8 -4 29 -9 45 -4 17 -11 52 -14 79 -3 27 -8 52
-10 57 -3 4 -8 29 -10 55 -3 26 -10 64 -15 85 -6 21 -9 41 -8 46 1 4 -3 37
-10 73 -7 36 -17 88 -22 115 -5 28 -14 77 -21 110 -6 33 -11 68 -11 78 2 45
-27 83 -43 57z"/>
<path d="M893 2422 c-32 -43 -82 -147 -102 -211 -13 -42 -17 -84 -16 -152 3
-111 29 -197 108 -353 54 -106 98 -200 117 -251 64 -167 51 -385 -32 -533 -18
-32 -17 -52 2 -52 22 0 74 134 96 245 34 174 6 289 -149 603 -42 83 -74 152
-71 152 2 0 -2 12 -9 28 -27 54 -40 168 -27 240 6 37 16 78 22 92 24 58 44 97
68 135 14 22 29 45 33 51 4 7 1 17 -6 23 -10 8 -18 4 -34 -17z"/>
<path d="M1425 2170 c-64 -17 -131 -32 -156 -36 -36 -5 -79 -22 -79 -31 0 -5
5 -26 10 -48 5 -22 12 -65 15 -95 3 -30 10 -74 16 -97 5 -24 8 -46 7 -50 -1
-5 3 -44 10 -88 7 -44 17 -108 23 -142 5 -35 14 -93 21 -130 6 -38 11 -77 10
-88 -1 -11 3 -36 8 -56 6 -20 12 -59 15 -87 2 -28 9 -71 15 -96 5 -25 9 -49 8
-53 -2 -5 3 -39 9 -78 7 -38 17 -101 22 -140 6 -38 13 -89 17 -113 3 -26 12
-46 22 -49 8 -4 65 4 126 16 102 21 128 26 164 30 13 1 17 41 4 41 -4 0 -23
-5 -42 -10 -19 -6 -51 -13 -70 -16 -19 -2 -50 -8 -70 -13 -99 -25 -97 -26
-105 32 -4 29 -9 65 -10 81 -2 15 -8 56 -13 90 -6 33 -16 97 -22 141 -6 44
-15 104 -21 132 -6 29 -12 74 -14 101 l-4 48 62 13 c34 7 75 17 91 22 16 5 41
9 56 9 36 0 69 25 53 40 -8 9 -20 9 -50 -1 -21 -6 -51 -14 -68 -16 -16 -2 -39
-6 -50 -10 -11 -3 -30 -7 -42 -9 -11 -1 -30 -5 -42 -9 -14 -4 -21 -2 -22 7 -1
7 -3 28 -5 45 -1 18 -7 55 -13 83 -6 28 -10 54 -9 58 1 4 -3 43 -10 87 -7 44
-17 108 -23 143 -5 34 -13 90 -18 125 -19 124 -21 148 -12 143 5 -3 29 0 54 8
25 8 48 12 50 10 2 -3 17 0 33 7 16 6 47 13 68 15 44 6 76 20 76 34 0 12 -52
11 -95 0z"/>
</g>
</svg>
